<svg width="20" height="20" viewBox="0 0 20 20" fill="none" xmlns="http://www.w3.org/2000/svg">
<g clip-path="url(#clip0_28_7721)">
<path d="M8.67582 0.0938385C10.9119 -0.213133 13.1867 0.237986 15.1337 1.37447C15.897 1.82 16.5924 2.36081 17.2054 2.97962L17.9526 2.18293C18.1781 1.94241 18.5807 2.03499 18.6773 2.34961L19.9808 6.59715C20.0773 6.91178 19.7953 7.21246 19.4732 7.13835L15.1249 6.13783C14.8029 6.0637 14.6822 5.67046 14.9078 5.42995L15.8328 4.44337C15.3283 3.92332 14.7519 3.47026 14.1168 3.09956C12.5592 2.19039 10.7394 1.82952 8.95052 2.07509C7.16167 2.32067 5.508 3.15841 4.25597 4.45331C3.00394 5.7482 2.22645 7.42485 2.04882 9.21308C1.87119 11.0013 2.30375 12.797 3.27678 14.3107C4.24982 15.8245 5.70671 16.9682 7.41262 17.5575C9.11853 18.1468 10.9741 18.1476 12.6805 17.5594C14.0688 17.0809 15.2925 16.2352 16.2251 15.1217C16.5804 14.6974 17.1974 14.557 17.6647 14.8549C18.1321 15.1529 18.272 15.7751 17.9274 16.2081C16.7435 17.6959 15.1534 18.8235 13.3382 19.4492C11.2053 20.1844 8.88582 20.1836 6.75343 19.4469C4.62103 18.7103 2.79993 17.2807 1.58363 15.3885C0.367339 13.4963 -0.173285 11.2516 0.0487546 9.01635C0.270796 6.78106 1.24262 4.68521 2.80766 3.06659C4.37269 1.44799 6.43977 0.400811 8.67582 0.0938385Z" fill="white"/>
<path d="M12.7732 13.3044C12.3392 13.3044 11.9572 13.1799 11.6273 12.9311C11.3033 12.6765 11.0486 12.3003 10.8635 11.8026C10.6841 11.2992 10.5944 10.677 10.5944 9.93631C10.5944 9.20135 10.6841 8.59082 10.8635 8.10471C11.0486 7.61281 11.3033 7.24533 11.6273 7.00228C11.9572 6.75922 12.3392 6.6377 12.7732 6.6377C13.213 6.6377 13.5949 6.76212 13.919 7.01096C14.2431 7.25401 14.4948 7.6186 14.6742 8.10471C14.8594 8.59082 14.952 9.20135 14.952 9.93631C14.952 10.677 14.8594 11.2992 14.6742 11.8026C14.4948 12.3003 14.2431 12.6765 13.919 12.9311C13.5949 13.1799 13.213 13.3044 12.7732 13.3044ZM12.7732 12.3061C12.9642 12.3061 13.132 12.2338 13.2767 12.0891C13.4213 11.9444 13.5342 11.7014 13.6152 11.3599C13.6962 11.0127 13.7367 10.5382 13.7367 9.93631C13.7367 9.34024 13.6962 8.87438 13.6152 8.53874C13.5342 8.1973 13.4213 7.96003 13.2767 7.82693C13.132 7.68804 12.9642 7.6186 12.7732 7.6186C12.5938 7.6186 12.4289 7.68804 12.2784 7.82693C12.1337 7.96003 12.018 8.1973 11.9312 8.53874C11.8444 8.87438 11.801 9.34024 11.801 9.93631C11.801 10.5382 11.8444 11.0127 11.9312 11.3599C12.018 11.7014 12.1337 11.9444 12.2784 12.0891C12.4289 12.2338 12.5938 12.3061 12.7732 12.3061Z" fill="white"/>
<path d="M5.80408 13.1828V12.1411H7.19297V8.08729H6.02109V7.28868C6.34517 7.23081 6.62294 7.16137 6.85442 7.08035C7.09169 6.99354 7.3116 6.88359 7.51415 6.75049H8.46033V12.1411H9.66692V13.1828H5.80408Z" fill="white"/>
</g>
<defs>
<clipPath id="clip0_28_7721">
<rect width="20" height="20" fill="white"/>
</clipPath>
</defs>
</svg>
