<svg width="20" height="20" viewBox="0 0 20 20" fill="none" xmlns="http://www.w3.org/2000/svg">
<g clip-path="url(#clip0_28_7503)">
<path d="M11.3242 0.0938385C9.08812 -0.213133 6.81327 0.237986 4.86627 1.37447C4.103 1.82 3.40763 2.36081 2.79458 2.97962L2.0474 2.18293C1.82186 1.94241 1.41926 2.03499 1.3227 2.34961L0.0192394 6.59715C-0.0773093 6.91178 0.204688 7.21246 0.526783 7.13835L4.87508 6.13783C5.19715 6.0637 5.31778 5.67046 5.09224 5.42995L4.16715 4.44337C4.67172 3.92332 5.24814 3.47026 5.88321 3.09956C7.4408 2.19039 9.26064 1.82952 11.0495 2.07509C12.8383 2.32067 14.492 3.15841 15.744 4.45331C16.9961 5.7482 17.7736 7.42485 17.9512 9.21308C18.1288 11.0013 17.6962 12.797 16.7232 14.3107C15.7502 15.8245 14.2933 16.9682 12.5874 17.5575C10.8815 18.1468 9.02585 18.1476 7.31953 17.5594C5.93121 17.0809 4.70752 16.2352 3.77494 15.1217C3.41963 14.6974 2.80259 14.557 2.33527 14.8549C1.86794 15.1529 1.72802 15.7751 2.07256 16.2081C3.25652 17.6959 4.8466 18.8235 6.66176 19.4492C8.79467 20.1844 11.1142 20.1836 13.2466 19.4469C15.379 18.7103 17.2001 17.2807 18.4164 15.3885C19.6327 13.4963 20.1733 11.2516 19.9512 9.01635C19.7292 6.78106 18.7574 4.68521 17.1923 3.06659C15.6273 1.44799 13.5602 0.400811 11.3242 0.0938385Z" fill="white"/>
<path d="M12.7732 13.3044C12.3392 13.3044 11.9572 13.1799 11.6273 12.9311C11.3033 12.6765 11.0486 12.3003 10.8635 11.8026C10.6841 11.2992 10.5944 10.677 10.5944 9.93631C10.5944 9.20135 10.6841 8.59082 10.8635 8.10471C11.0486 7.61281 11.3033 7.24533 11.6273 7.00228C11.9572 6.75922 12.3392 6.6377 12.7732 6.6377C13.213 6.6377 13.5949 6.76212 13.919 7.01096C14.2431 7.25401 14.4948 7.6186 14.6742 8.10471C14.8594 8.59082 14.952 9.20135 14.952 9.93631C14.952 10.677 14.8594 11.2992 14.6742 11.8026C14.4948 12.3003 14.2431 12.6765 13.919 12.9311C13.5949 13.1799 13.213 13.3044 12.7732 13.3044ZM12.7732 12.3061C12.9642 12.3061 13.132 12.2338 13.2767 12.0891C13.4213 11.9444 13.5342 11.7014 13.6152 11.3599C13.6962 11.0127 13.7367 10.5382 13.7367 9.93631C13.7367 9.34024 13.6962 8.87438 13.6152 8.53874C13.5342 8.1973 13.4213 7.96003 13.2767 7.82693C13.132 7.68804 12.9642 7.6186 12.7732 7.6186C12.5938 7.6186 12.4289 7.68804 12.2784 7.82693C12.1337 7.96003 12.018 8.1973 11.9312 8.53874C11.8444 8.87438 11.801 9.34024 11.801 9.93631C11.801 10.5382 11.8444 11.0127 11.9312 11.3599C12.018 11.7014 12.1337 11.9444 12.2784 12.0891C12.4289 12.2338 12.5938 12.3061 12.7732 12.3061Z" fill="white"/>
<path d="M5.80408 13.1828V12.1411H7.19297L7.19297 8.08729H6.02109V7.28868C6.34517 7.23081 6.62294 7.16137 6.85442 7.08035C7.09169 6.99354 7.3116 6.88359 7.51415 6.75049H8.46033V12.1411H9.66692V13.1828H5.80408Z" fill="white"/>
</g>
<defs>
<clipPath id="clip0_28_7503">
<rect width="20" height="20" fill="white"/>
</clipPath>
</defs>
</svg>
