<svg width="20" height="20" viewBox="0 0 20 20" fill="none" xmlns="http://www.w3.org/2000/svg">
<g clip-path="url(#clip0_2057_510)">
<g clip-path="url(#clip1_2057_510)">
<path d="M8.92479 13.4972L10.0883 12.7129L7.46821 8.75684L4.66709 10.6314C4.22308 10.9383 3.89615 11.3865 3.73962 11.9031C3.5831 12.4196 3.60622 12.9739 3.80521 13.4756C3.9373 13.8159 4.14718 14.1206 4.41805 14.3653C4.68893 14.61 5.01329 14.7879 5.36521 14.8848C5.69766 14.9778 6.04634 14.9974 6.38713 14.9424C6.72792 14.8873 7.05267 14.7589 7.33893 14.5659L8.94203 13.4886L8.92479 13.4972Z" fill="white"/>
<path d="M9.99785 0C7.34625 0 4.80326 1.05334 2.9283 2.9283C1.05334 4.80326 0 7.34625 0 9.99785C-2.46145e-07 12.6498 1.0532 15.1933 2.92804 17.0689C4.80288 18.9446 7.34586 19.9989 9.99785 20C12.6506 20 15.1947 18.9462 17.0704 17.0704C18.9462 15.1947 20 12.6506 20 9.99785C19.9989 7.34586 18.9446 4.80288 17.0689 2.92804C15.1933 1.0532 12.6498 -2.46145e-07 9.99785 0ZM17.173 11.0062C17.1371 11.0738 17.0838 11.1305 17.0187 11.1707C16.9535 11.2108 16.8789 11.2329 16.8024 11.2346C14.9864 11.3411 13.2183 11.8583 11.6311 12.7473L12.8378 15.1993C12.9283 15.3456 12.9891 15.5083 13.0168 15.6781C13.0445 15.8479 13.0384 16.0215 12.999 16.189C12.9596 16.3564 12.8876 16.5145 12.7871 16.6541C12.6866 16.7938 12.5596 16.9123 12.4133 17.0028C12.267 17.0933 12.1043 17.1542 11.9345 17.1819C11.7647 17.2095 11.5911 17.2035 11.4236 17.1641C11.2561 17.1247 11.0981 17.0526 10.9584 16.9521C10.8188 16.8516 10.7003 16.7246 10.6098 16.5783L9.06701 14.4236L7.81728 15.2855C7.45112 15.5348 7.03753 15.7059 6.60229 15.7882C6.16706 15.8705 5.71954 15.8622 5.28765 15.7638C4.75864 15.6455 4.26853 15.3942 3.86361 15.0338C3.4587 14.6734 3.15235 14.2157 2.9735 13.7039C2.7352 13.031 2.72738 12.2978 2.95128 11.6199C3.17517 10.942 3.61806 10.3578 4.2103 9.95906L7.36479 7.84314C9.09782 6.62583 10.4752 4.96877 11.3553 3.04245C11.3863 2.97293 11.4351 2.91287 11.4969 2.86835C11.5586 2.82384 11.631 2.79647 11.7068 2.78903C11.7825 2.78159 11.8589 2.79434 11.9281 2.82598C11.9973 2.85762 12.0569 2.90704 12.1008 2.96919L13.7513 5.45572C13.8905 5.40983 14.0358 5.38513 14.1823 5.38246C14.5827 5.3836 14.9663 5.54347 15.2491 5.82701C15.5318 6.11056 15.6906 6.49464 15.6906 6.89507C15.6911 7.25065 15.5642 7.59465 15.3329 7.86468L17.1429 10.5839C17.1838 10.6458 17.2081 10.7171 17.2134 10.7911C17.2187 10.8651 17.2048 10.9392 17.173 11.0062Z" fill="white"/>
<path d="M14.8244 7.07616C14.8431 7.01465 14.8533 6.95084 14.8546 6.88655C14.8544 6.7226 14.7935 6.56452 14.6837 6.44277C14.5739 6.32103 14.4229 6.24424 14.2599 6.22721L14.3935 6.42975L14.8244 7.07616ZM10.1788 13.6782L9.7479 13.9626L11.2864 16.1173L11.3122 16.1561C11.3643 16.2412 11.4424 16.3073 11.535 16.3446C11.6275 16.3819 11.7296 16.3885 11.8262 16.3634C11.9228 16.3383 12.0087 16.2828 12.0714 16.2051C12.134 16.1275 12.17 16.0317 12.1741 15.932C12.1734 15.8382 12.1449 15.7467 12.0922 15.6691C12.0806 15.6529 12.0705 15.6356 12.0621 15.6174L10.8813 13.2128L10.1788 13.6782ZM13.2342 6.21428L11.7906 4.05957C10.9121 5.72681 9.676 7.17926 8.17065 8.31296L10.7908 12.269C12.3909 11.29 14.1849 10.6709 16.0483 10.4547L14.0099 7.39506L13.2342 6.21428Z" fill="white"/>
</g>
</g>
<defs>
<clipPath id="clip0_2057_510">
<rect width="20" height="20" fill="white"/>
</clipPath>
<clipPath id="clip1_2057_510">
<rect width="20" height="20" fill="white"/>
</clipPath>
</defs>
</svg>
