<svg width="20" height="22" viewBox="0 0 20 22" fill="none" xmlns="http://www.w3.org/2000/svg">
<path d="M19.8596 4.52326C19.713 4.34725 19.5076 4.25925 19.3023 4.25925H1.40807V1.67779C1.40807 1.29644 1.08539 0.973755 0.704035 0.973755C0.322682 0.973755 0 1.29644 0 1.67779V16.3452C0 16.7265 0.322682 17.0492 0.704035 17.0492H1.52541C0.968048 18.0759 1.08539 19.3667 1.96543 20.2467C2.46412 20.7454 3.13882 21.0387 3.84286 21.0387C4.54689 21.0387 5.22159 20.7747 5.72028 20.2467C6.21897 19.748 6.51232 19.0733 6.51232 18.3693C6.51232 17.8999 6.39498 17.4599 6.1603 17.0785H9.47513C8.91777 18.1053 9.03511 19.396 9.91516 20.276C10.4138 20.7747 11.0885 21.0681 11.7926 21.0681C12.4966 21.0681 13.1713 20.8041 13.67 20.276C14.1687 19.7773 14.462 19.1026 14.462 18.3986C14.462 17.9293 14.3447 17.4892 14.11 17.1079H15.0194C15.4008 17.1079 15.7234 16.7852 15.7234 16.4038C15.7234 16.0225 15.4008 15.6998 15.0194 15.6998H1.40807V14.3211H16.9555C17.2782 14.3211 17.5422 14.1157 17.6302 13.793L19.977 5.19796C20.0357 4.90461 19.977 4.69927 19.8596 4.52326ZM4.75223 19.22C4.28288 19.6893 3.43217 19.6893 2.96281 19.22C2.46412 18.7213 2.46412 17.9293 2.96281 17.4306C3.19749 17.1959 3.52017 17.0492 3.87219 17.0492C4.22421 17.0492 4.51756 17.1665 4.78157 17.4306C5.01625 17.6652 5.16292 17.9879 5.16292 18.3399C5.16292 18.692 5.01625 18.9853 4.75223 19.22ZM12.7313 19.22C12.2619 19.6893 11.4112 19.6893 10.9419 19.22C10.4432 18.7213 10.4432 17.9293 10.9419 17.4306C11.1766 17.1959 11.4992 17.0492 11.8513 17.0492C12.2033 17.0492 12.4966 17.1665 12.7606 17.4306C12.9953 17.6652 13.142 17.9879 13.142 18.3399C13.142 18.692 12.9953 18.9853 12.7313 19.22ZM16.3981 12.825H1.40807V5.63798H18.3636L16.3981 12.825Z" fill="white"/>
</svg>
