<svg width="20" height="20" viewBox="0 0 20 20" fill="none" xmlns="http://www.w3.org/2000/svg">
<g clip-path="url(#clip0_2115_815)">
<path d="M5.17857 20H4.64286C3.45982 20 2.5 19.0402 2.5 17.8571V2.14286C2.5 0.959822 3.45982 0 4.64286 0H5.17857C6.36161 0 7.32143 0.959822 7.32143 2.14286V17.8571C7.32143 19.0402 6.36161 20 5.17857 20ZM17.5 17.8571V2.14286C17.5 0.959822 16.5402 0 15.3571 0H14.8214C13.6384 0 12.6786 0.959822 12.6786 2.14286V17.8571C12.6786 19.0402 13.6384 20 14.8214 20H15.3571C16.5402 20 17.5 19.0402 17.5 17.8571Z" fill="#9747FF"/>
</g>
<defs>
<clipPath id="clip0_2115_815">
<rect width="20" height="20" fill="white"/>
</clipPath>
</defs>
</svg>
