<svg width="21" height="21" viewBox="0 0 21 21" fill="none" xmlns="http://www.w3.org/2000/svg">
<g clip-path="url(#clip0_26_3728)">
<path d="M2.00006 20.0002C1.63405 20.0002 1.27004 19.9002 0.948029 19.7022C0.65837 19.5225 0.419312 19.2719 0.253433 18.9741C0.0875535 18.6763 0.00032971 18.3411 0 18.0002V1.9997C0 1.30568 0.360011 0.661662 0.948029 0.297651C1.23833 0.119167 1.56925 0.0174463 1.90968 0.0020517C2.25011 -0.0133429 2.58886 0.0580946 2.89409 0.209648L18.8946 8.20989C19.2268 8.3763 19.5061 8.63187 19.7014 8.94801C19.8966 9.26415 20 9.62838 20 9.99995C20 10.3715 19.8966 10.7357 19.7014 11.0519C19.5061 11.368 19.2268 11.6236 18.8946 11.79L2.89409 19.7902C2.61408 19.9302 2.30407 20.0002 2.00006 20.0002Z" fill="#9747FF"/>
</g>
<defs>
<clipPath id="clip0_26_3728">
<rect width="19.9998" height="20" fill="white" transform="translate(0.333252 0.116577)"/>
</clipPath>
</defs>
</svg>
