<svg width="20" height="20" viewBox="0 0 20 20" fill="none" xmlns="http://www.w3.org/2000/svg">
<g clip-path="url(#clip0_28_6390)">
<path d="M0.00012207 10C0.00012207 10.221 0.0879196 10.433 0.2442 10.5893C0.40048 10.7455 0.612442 10.8333 0.833455 10.8333H17.1551L13.5785 14.41C13.4267 14.5672 13.3427 14.7777 13.3446 14.9962C13.3465 15.2147 13.4341 15.4237 13.5886 15.5782C13.7431 15.7327 13.9521 15.8203 14.1706 15.8222C14.3891 15.8241 14.5996 15.7401 14.7568 15.5883L19.7568 10.5883C19.8339 10.5117 19.8951 10.4205 19.9369 10.3201C19.9786 10.2197 20.0001 10.1121 20.0001 10.0033V10C20.0001 9.89166 19.9785 9.78333 19.9351 9.68166C19.8936 9.58063 19.8324 9.48886 19.7551 9.41166L14.7551 4.41166C14.598 4.25986 14.3875 4.17587 14.169 4.17777C13.9505 4.17966 13.7414 4.26731 13.5869 4.42181C13.4324 4.57632 13.3448 4.78533 13.3429 5.00383C13.341 5.22232 13.425 5.43283 13.5768 5.58999L17.1551 9.16666H0.833455C0.612442 9.16666 0.40048 9.25446 0.2442 9.41074C0.0879196 9.56702 0.00012207 9.77898 0.00012207 10Z" fill="white"/>
</g>
<defs>
<clipPath id="clip0_28_6390">
<rect width="20" height="19.6445" fill="white" transform="translate(0 0.177734)"/>
</clipPath>
</defs>
</svg>
