<svg width="20" height="20" viewBox="0 0 20 20" fill="none" xmlns="http://www.w3.org/2000/svg">
<path fill-rule="evenodd" clip-rule="evenodd" d="M2.37361 17.0645C3.17324 17.2292 4.47417 17.2923 8.28308 17.3624C11.4597 17.4133 14.2586 17.3595 17.5547 17.1116C18.0814 17.0212 18.5681 16.7724 18.9499 16.3984C19.1933 16.1554 19.3339 15.9361 19.4987 15.5205C19.7651 14.8623 19.8593 14.2274 19.9766 12.4329C20.0077 11.8919 20.0077 8.81995 19.9766 8.27895C19.9692 8.16762 19.9624 8.05326 19.9555 7.93641C19.8917 6.8616 19.8155 5.57748 19.1462 4.52459C18.8011 4.07004 18.2133 3.71754 17.5866 3.59992C16.8022 3.45112 13.456 3.3335 10.0074 3.3335C6.55098 3.3335 3.2122 3.45112 2.42853 3.59992C1.92686 3.69379 1.48011 3.92088 1.09606 4.27376C0.359488 4.95657 0.241264 6.08093 0.134566 7.09568C0.123443 7.20146 0.112446 7.30605 0.100887 7.40882C-0.0475364 9.38025 -0.0189649 11.1446 0.100887 13.3027C0.17918 14.2589 0.234096 14.6504 0.375098 15.1209C0.539477 15.6856 0.75135 16.0927 1.01777 16.3595C1.36248 16.712 1.83261 16.955 2.37361 17.0645ZM13.3274 10.1503C11.9982 9.44008 10.71 8.76722 9.41817 8.09247C8.92883 7.83687 8.43896 7.58101 7.94616 7.32274V8.3344C7.94343 8.33345 7.9407 8.3325 7.93797 8.33154V12.0829C7.9407 12.0819 7.94343 12.081 7.94616 12.08V12.9502C8.88102 12.442 9.84098 11.9549 10.7556 11.4908C11.5461 11.0896 12.3027 10.7057 12.9799 10.3402C13.0992 10.2973 13.2161 10.2547 13.3302 10.2126H13.3224C13.3006 10.2048 13.2787 10.197 13.2569 10.1893C13.2805 10.1763 13.304 10.1633 13.3274 10.1503Z" fill="white"/>
</svg>
